<svg xmlns="http://www.w3.org/2000/svg" viewBox="0 0 452.979 452.979">
  <path d="M437.979 433.724l-419.29.565.566-418.723c.011-8.284-.495-15-8.78-15C2.193.566 0 6.716 0 15v422.979c0 8.284 6.716 15 15 15h422.979c8.284 0 14.434-2.192 14.434-10.476s-6.15-8.79-14.434-8.78z"/><path d="M56.998 405.981h78.927c5.523 0 10-4.477 10-10v-82.833c0-5.523-4.477-10-10-10H56.998c-5.523 0-10 4.477-10 10v82.833c0 5.523 4.477 10 10 10zm10-82.833h58.927v62.833H66.998v-62.833zM179.147 405.981h78.927c5.522 0 10-4.477 10-10v-215.6c0-5.523-4.478-10-10-10h-78.927c-5.523 0-10 4.477-10 10v215.6c0 5.523 4.477 10 10 10zm10-215.599h58.927v195.6h-58.927v-195.6zM305.054 405.981h78.928c5.522 0 10-4.477 10-10V49.161c0-5.523-4.478-10-10-10h-78.928c-5.522 0-10 4.477-10 10v346.82c0 5.523 4.478 10 10 10zm10-346.82h58.928v326.82h-58.928V59.161z"/>
</svg>

<svg xmlns="http://www.w3.org/2000/svg" viewBox="0 0 453 453">
  <path d="M438 434H19V16c0-9 0-15-9-15C2 1 0 7 0 15v423c0 8 7 15 15 15h423c8 0 14-2 14-10s-6-9-14-9z"/>
  <path d="M57 406h79c5 0 10-4 10-10v-83c0-5-5-10-10-10H57c-6 0-10 5-10 10v83c0 6 4 10 10 10zm10-83h59v63H67v-63zm112 83h79c6 0 10-4 10-10V180c0-5-4-10-10-10h-79c-5 0-10 5-10 10v216c0 6 5 10 10 10zm10-216h59v196h-59V190zm116 216h79c6 0 10-4 10-10V49c0-5-4-10-10-10h-79c-5 0-10 5-10 10v347c0 6 5 10 10 10zm10-347h59v327h-59V59z"/>
</svg>
