<svg viewBox="0 0 24 24" xmlns="http://www.w3.org/2000/svg">
  <path d="M12 0C8.74 0 8.333.015 7.053.072 5.775.132 4.905.333 4.14.63c-.789.306-1.459.717-2.126 1.384S.935 3.35.63 4.14C.333 4.905.131 5.775.072 7.053.012 8.333 0 8.74 0 12s.015 3.667.072 4.947c.06 1.277.261 2.148.558 2.913a5.885 5.885 0 001.384 2.126A5.868 5.868 0 004.14 23.37c.766.296 1.636.499 2.913.558C8.333 23.988 8.74 24 12 24s3.667-.015 4.947-.072c1.277-.06 2.148-.262 2.913-.558a5.898 5.898 0 002.126-1.384 5.86 5.86 0 001.384-2.126c.296-.765.499-1.636.558-2.913.06-1.28.072-1.687.072-4.947s-.015-3.667-.072-4.947c-.06-1.277-.262-2.149-.558-2.913a5.89 5.89 0 00-1.384-2.126A5.847 5.847 0 0019.86.63c-.765-.297-1.636-.499-2.913-.558C15.667.012 15.26 0 12 0zm0 2.16c3.203 0 3.585.016 4.85.071 1.17.055 1.805.249 2.227.415.562.217.96.477 1.382.896.419.42.679.819.896 1.381.164.422.36 1.057.413 2.227.057 1.266.07 1.646.07 4.85s-.015 3.585-.074 4.85c-.061 1.17-.256 1.805-.421 2.227a3.81 3.81 0 01-.899 1.382 3.744 3.744 0 01-1.38.896c-.42.164-1.065.36-2.235.413-1.274.057-1.649.07-4.859.07-3.211 0-3.586-.015-4.859-.074-1.171-.061-1.816-.256-2.236-.421a3.716 3.716 0 01-1.379-.899 3.644 3.644 0 01-.9-1.38c-.165-.42-.359-1.065-.42-2.235-.045-1.26-.061-1.649-.061-4.844 0-3.196.016-3.586.061-4.861.061-1.17.255-1.814.42-2.234.21-.57.479-.96.9-1.381.419-.419.81-.689 1.379-.898.42-.166 1.051-.361 2.221-.421 1.275-.045 1.65-.06 4.859-.06l.045.03zm0 3.678a6.162 6.162 0 100 12.324 6.162 6.162 0 100-12.324zM12 16c-2.21 0-4-1.79-4-4s1.79-4 4-4 4 1.79 4 4-1.79 4-4 4zm7.846-10.405a1.441 1.441 0 01-2.88 0 1.44 1.44 0 012.88 0z"/>
</svg>

<svg xmlns="http://www.w3.org/2000/svg" viewBox="0 0 24 24">
  <path d="M12 0C8.74 0 8.33.01 7.05.07a8.85 8.85 0 0 0-2.91.56c-.79.3-1.46.72-2.13 1.38S.94 3.35.63 4.14c-.3.77-.5 1.64-.56 2.91C.01 8.33 0 8.74 0 12s.01 3.67.07 4.95c.06 1.27.26 2.15.56 2.91a5.88 5.88 0 0 0 1.38 2.13 5.87 5.87 0 0 0 2.13 1.38c.77.3 1.64.5 2.91.56 1.28.06 1.69.07 4.95.07s3.67-.01 4.95-.07a8.88 8.88 0 0 0 2.91-.56 5.9 5.9 0 0 0 2.13-1.38 5.86 5.86 0 0 0 1.38-2.13c.3-.77.5-1.64.56-2.91.06-1.28.07-1.69.07-4.95s-.01-3.67-.07-4.95a8.87 8.87 0 0 0-.56-2.91 5.89 5.89 0 0 0-1.38-2.13A5.85 5.85 0 0 0 19.86.63c-.77-.3-1.64-.5-2.91-.56A83.63 83.63 0 0 0 12 0zm0 2.16c3.2 0 3.58.02 4.85.07 1.17.06 1.8.25 2.23.42.56.21.96.47 1.38.9.42.41.68.81.9 1.37.16.43.36 1.06.4 2.23.07 1.27.08 1.65.08 4.85s-.02 3.58-.08 4.85a6.75 6.75 0 0 1-.42 2.23 3.81 3.81 0 0 1-.9 1.38 3.74 3.74 0 0 1-1.38.9 6.5 6.5 0 0 1-2.23.4c-1.27.07-1.65.08-4.86.08-3.21 0-3.59-.02-4.86-.08a6.8 6.8 0 0 1-2.23-.42 3.72 3.72 0 0 1-1.38-.9 3.64 3.64 0 0 1-.9-1.38 6.81 6.81 0 0 1-.42-2.23 96.23 96.23 0 0 1-.06-4.84c0-3.2.01-3.6.06-4.87A6.8 6.8 0 0 1 2.6 4.9c.2-.57.48-.96.9-1.38.42-.42.8-.69 1.38-.9A6.64 6.64 0 0 1 7.1 2.2c1.27-.04 1.65-.06 4.86-.06l.04.03zm0 3.68a6.16 6.16 0 1 0 0 12.32 6.16 6.16 0 1 0 0-12.32zM12 16a4 4 0 1 1 0-8 4 4 0 0 1 0 8zm7.85-10.4a1.44 1.44 0 0 1-2.88 0 1.44 1.44 0 0 1 2.88 0z"/>
</svg>
