<svg xmlns="http://www.w3.org/2000/svg" viewBox="0 0 372.483 372.483">
  <path d="M372.482 263.045c0-21.796-6.527-42.842-18.877-60.863-8.883-12.962-20.322-23.726-33.578-31.725 15.607-14.78 25.372-35.67 25.372-58.811 0-44.684-36.354-81.038-81.037-81.038-26.496 0-51.316 13.104-66.392 34.615-3.831-.558-7.745-.859-11.729-.859s-7.897.302-11.728.859c-15.077-21.511-39.897-34.615-66.392-34.615-44.684 0-81.038 36.354-81.038 81.038 0 23.141 9.765 44.031 25.373 58.811-13.257 7.998-24.696 18.763-33.578 31.724C6.528 220.203 0 241.249 0 263.045v45.075h78.121v33.755h216.242V308.12h78.12v-45.075h-.001zM264.362 50.609c33.656 0 61.037 27.381 61.037 61.038s-27.381 61.038-61.037 61.038c-.603 0-1.206-.009-1.81-.027.046-.128.084-.259.129-.387a80.237 80.237 0 002.608-9.087c.049-.22.105-.438.152-.659.181-.836.34-1.68.495-2.526.073-.4.148-.799.215-1.2a81.406 81.406 0 00.547-3.862c.079-.672.156-1.345.219-2.022.064-.691.112-1.383.158-2.076.036-.546.081-1.09.106-1.639.055-1.177.086-2.356.09-3.536 0-.087.007-.172.007-.26 0-.047-.004-.094-.004-.141a82.586 82.586 0 00-.091-3.597c-.016-.347-.037-.693-.057-1.039a83.979 83.979 0 00-.231-3.03c-.022-.228-.04-.456-.063-.683-3.022-29.209-21.475-54.21-48.095-65.774 11.471-12.887 28.063-20.531 45.625-20.531zm-99.24 37.522c.195-.071.392-.138.587-.208a58.805 58.805 0 014.273-1.347 60.923 60.923 0 0116.257-2.216 61.173 61.173 0 0117.3 2.516 61.303 61.303 0 013.247 1.055c.189.067.378.131.566.2 20.413 7.549 35.718 25.716 39.182 47.763l.079.53c.111.747.204 1.5.287 2.255.03.278.062.555.089.834.066.689.115 1.383.159 2.079.018.298.043.595.057.894.042.889.065 1.783.068 2.682 0 .078.005.154.005.232l-.002.109c-.002.87-.028 1.734-.066 2.595-.012.271-.024.542-.04.812-.047.832-.109 1.66-.189 2.482-.031.318-.073.635-.109.952a63.987 63.987 0 01-.203 1.591c-.058.411-.116.823-.182 1.232a60.171 60.171 0 01-.907 4.486 61.492 61.492 0 01-.637 2.42c-.091.319-.176.64-.272.956-.139.46-.289.916-.438 1.372-.12.365-.243.728-.37 1.09-.144.411-.286.823-.438 1.231-.259.693-.531 1.38-.814 2.061-.126.304-.26.605-.391.908a59.694 59.694 0 01-.765 1.689l-.093.198c-.095.198-.189.397-.286.595a58.174 58.174 0 01-.92 1.793c-.123.23-.242.463-.368.692a61.358 61.358 0 01-1.098 1.909c-.146.244-.29.489-.439.73-.4.649-.811 1.291-1.234 1.923-.263.393-.538.778-.81 1.165-.231.328-.461.657-.698.98a62.132 62.132 0 01-1.592 2.074c-.336.42-.675.838-1.021 1.249-.215.255-.436.505-.655.756-.36.413-.719.827-1.089 1.23-.22.239-.448.469-.672.705a62.432 62.432 0 01-1.846 1.865c-.373.361-.744.723-1.126 1.074-.264.243-.535.479-.804.718a60.414 60.414 0 01-2.017 1.718c-.543.442-1.093.875-1.652 1.299-.152.115-.302.232-.455.346-10.16 7.553-22.736 12.03-36.34 12.03-13.605 0-26.183-4.478-36.343-12.033-.15-.112-.297-.227-.446-.34a59.826 59.826 0 01-1.659-1.305c-.229-.187-.458-.374-.684-.564a63.729 63.729 0 01-1.333-1.155c-.267-.238-.537-.472-.8-.714-.383-.352-.755-.715-1.129-1.076a61.645 61.645 0 01-1.852-1.871c-.221-.233-.447-.46-.664-.696-.371-.404-.73-.819-1.09-1.232-.219-.251-.439-.5-.654-.755a63.823 63.823 0 01-1.676-2.081c-.317-.41-.63-.823-.937-1.241-.237-.324-.468-.654-.699-.983-.272-.386-.546-.77-.808-1.162a60.8 60.8 0 01-1.239-1.93c-.147-.239-.289-.48-.433-.721a60.982 60.982 0 01-1.089-1.892c-.129-.235-.251-.474-.378-.71a62.075 62.075 0 01-.922-1.798c-.106-.215-.209-.432-.312-.648l-.046-.099a60.047 60.047 0 01-.801-1.769c-.123-.283-.248-.565-.366-.849a61.796 61.796 0 01-.832-2.106c-.143-.382-.275-.768-.41-1.153a59.594 59.594 0 01-.404-1.192c-.141-.432-.283-.864-.415-1.298a59.234 59.234 0 01-.558-1.959c-.123-.461-.234-.926-.347-1.39a58.13 58.13 0 01-.254-1.097c-.1-.45-.201-.899-.291-1.351a59.653 59.653 0 01-.38-2.124c-.062-.384-.116-.769-.171-1.153a60.374 60.374 0 01-.219-1.715c-.032-.283-.069-.566-.098-.849a60.987 60.987 0 01-.194-2.544c-.014-.245-.025-.49-.036-.735a60.986 60.986 0 01-.07-2.745c0-.986.028-1.965.075-2.94.013-.265.035-.528.05-.792.044-.732.097-1.462.167-2.188.024-.253.053-.505.08-.757.086-.786.183-1.568.299-2.345.022-.151.044-.303.068-.454 3.453-22.06 18.761-40.239 39.182-47.793zM47.083 111.647c0-33.656 27.381-61.038 61.038-61.038 17.563 0 34.154 7.645 45.625 20.529-26.629 11.568-45.086 36.581-48.099 65.802-.021.198-.036.397-.055.596a81.183 81.183 0 00-.239 3.137c-.018.32-.038.639-.053.96a82.727 82.727 0 00-.096 3.77c0 1.276.037 2.549.097 3.821.024.512.066 1.019.099 1.528.049.732.099 1.464.167 2.194.06.649.134 1.294.21 1.939a78.833 78.833 0 00.547 3.878c.073.433.153.865.232 1.297.15.816.303 1.63.477 2.437.058.266.124.53.184.795a80.085 80.085 0 002.526 8.81c.064.185.12.372.185.556-.603.018-1.207.027-1.809.027-33.655-.001-61.036-27.382-61.036-61.038zm47.805 127.501c-.22.347-.43.7-.646 1.049-.457.738-.91 1.478-1.348 2.225-.245.417-.481.837-.719 1.257a106.539 106.539 0 00-1.865 3.416c-.364.697-.719 1.398-1.067 2.101-.219.442-.437.883-.649 1.327-.354.741-.695 1.488-1.032 2.236-.183.407-.371.811-.548 1.22-.39.896-.762 1.799-1.127 2.705-.107.265-.221.527-.325.792a106.116 106.116 0 00-1.326 3.553c-.096.273-.182.549-.277.822-.316.918-.624 1.839-.915 2.764-.133.425-.256.852-.384 1.278-.235.784-.466 1.569-.683 2.359-.129.47-.252.941-.375 1.413a98.632 98.632 0 00-.568 2.281 107.844 107.844 0 00-.822 3.776c-.093.467-.189.934-.276 1.403-.157.846-.298 1.696-.435 2.547-.064.4-.135.798-.195 1.198a107.15 107.15 0 00-.497 3.762l-.004.045c-.129 1.145-.24 2.292-.333 3.443H20v-25.075c0-34.258 19.694-65.013 50.548-79.631a80.517 80.517 0 0037.572 9.271c3.92 0 7.852-.29 11.754-.864a82.73 82.73 0 001.866 2.567c.216.283.44.559.66.839a80.733
           80.733 0 001.935 2.39c.271.321.549.635.825.952a80.407 80.407 0 002.92 3.181 84.246 84.246 0 001.793 1.794c.228.221.443.455.673.674-.869.525-1.73 1.063-2.583 1.612-.139.089-.275.183-.413.273-.853.554-1.697 1.12-2.533 1.697-.289.2-.577.402-.865.604-.745.525-1.482 1.059-2.213 1.602-.231.172-.465.34-.694.514-.93.703-1.849 1.419-2.756 2.151-.198.16-.392.325-.59.487a105.209 105.209 0 00-2.961 2.515 110.57 110.57 0 00-2.096 1.896c-.18.167-.364.331-.543.5a106.62 106.62 0 00-2.506 2.438c-.214.215-.423.434-.635.65-.63.643-1.253 1.293-1.868 1.952-.244.262-.488.524-.73.789-.692.756-1.374 1.522-2.045 2.299-.105.122-.214.24-.319.363-.765.893-1.513 1.803-2.251 2.722-.206.256-.407.516-.61.775-.555.705-1.102 1.417-1.64 2.136-.208.278-.417.554-.622.834a111.81 111.81 0 00-2.074 2.913 107.357 107.357 0 00-2.111 3.208zm3.233 82.728V296.801c0-1.11.021-2.216.062-3.319.013-.363.042-.723.06-1.085.036-.736.07-1.473.124-2.206.033-.445.083-.886.123-1.33.058-.646.11-1.293.182-1.935.053-.47.122-.937.182-1.406.078-.611.151-1.223.241-1.831.073-.484.161-.964.241-1.446.098-.586.189-1.174.299-1.757.093-.493.201-.981.302-1.472.116-.566.227-1.134.354-1.696.112-.496.24-.987.36-1.481.135-.55.264-1.103.409-1.65.132-.497.278-.989.418-1.482.152-.537.3-1.075.462-1.608.151-.496.317-.988.476-1.481.17-.523.335-1.047.514-1.566.17-.491.353-.978.531-1.465.188-.514.372-1.03.569-1.54.188-.485.388-.964.583-1.446.205-.503.407-1.009.621-1.508.207-.481.425-.957.64-1.433.221-.491.44-.984.67-1.47.225-.475.461-.944.694-1.415.238-.48.473-.961.719-1.436.243-.468.496-.93.747-1.393.254-.469.505-.938.767-1.402.26-.46.53-.913.797-1.368.27-.458.538-.917.817-1.371.277-.451.563-.895.848-1.341.286-.447.57-.894.864-1.336s.596-.878.898-1.314c.301-.435.601-.87.909-1.3.31-.432.629-.858.948-1.285.316-.423.631-.846.954-1.263.326-.421.66-.836.994-1.252.331-.412.663-.823 1.001-1.229a92.08 92.08 0 011.037-1.213c.347-.401.695-.802 1.05-1.198.355-.396.718-.786 1.08-1.176.362-.389.724-.776 1.093-1.158.37-.384.747-.762 1.125-1.139.377-.377.756-.752 1.14-1.123.383-.369.772-.733 1.163-1.096a94.02 94.02 0 011.185-1.085c.398-.356.8-.707 1.205-1.056.406-.351.815-.7 1.228-1.044a87.18 87.18 0 011.244-1.014c.421-.338.845-.673 1.273-1.004a102.037 102.037 0 012.598-1.931 87.936 87.936 0 014.022-2.714 85.066 85.066 0 012.787-1.701 89.436 89.436 0 014.357-2.391c.476-.245.954-.486 1.436-.723.379-.186.762-.366 1.145-.547a80.516 80.516 0 0037.572 9.27 80.513 80.513 0 0037.572-9.27c.38.18.76.359 1.136.543a98.535 98.535 0 012.933 1.507 89.056 89.056 0 012.858 1.605 84.334 84.334 0 012.786 1.701 83.62 83.62 0 012.711 1.794 82.258 82.258 0 012.632 1.884 82.487 82.487 0 012.554 1.972c.42.337.838.676 1.252 1.02.411.342.817.689 1.221 1.038a81.497 81.497 0 012.388 2.139c.394.366.787.734 1.174 1.107.381.367.756.739 1.129 1.112.38.38.76.761 1.133 1.147.366.38.727.764 1.086 1.15.366.393.731.787 1.089 1.186.352.392.697.789 1.041 1.187.351.405.702.811 1.045 1.223.337.403.666.812.995 1.221.336.418.672.835 1 1.259.322.415.635.836.949 1.257.32.428.64.857.952 1.291.307.427.606.861.905 1.294.303.438.607.876.902 1.32.292.439.574.883.858 1.327.287.449.575.897.854 1.351.276.449.542.905.81 1.359.27.458.542.915.803 1.378.261.462.511.93.764 1.396.252.465.506.929.749 1.398.246.474.48.955.718 1.434.233.471.47.941.695 1.417.23.486.448.977.668 1.467.216.479.435.955.642 1.438.213.495.412.996.616 1.496.198.486.4.97.589 1.46.196.507.379 1.02.566 1.532.179.489.362.976.532 1.469.18.521.346 1.048.516 1.573.159.491.324.98.474 1.475.163.533.31 1.072.463 1.609.14.493.286.984.418 1.481.145.547.274 1.099.409 1.65.121.493.248.985.36 1.481.127.562.237 1.129.354 1.694.101.491.209.98.302 1.474.109.578.199 1.161.297 1.743.081.487.171.971.244 1.461.09.603.162 1.211.24 1.817.061.473.131.943.184 1.418.072.642.124 1.289.182 1.935.04.444.09.885.123 1.33.055.733.088 1.471.124 2.208.018.361.047.721.06 1.083.041 1.103.062 2.209.062 3.319v25.076H98.121zm195.894-33.756a108.426 108.426 0 00-.836-7.263c-.057-.381-.125-.759-.186-1.139-.139-.871-.284-1.74-.445-2.606-.085-.456-.178-.91-.269-1.365-.157-.791-.321-1.58-.496-2.366a112.45 112.45 0 00-1.273-5.121c-.219-.798-.453-1.592-.691-2.385-.126-.418-.246-.837-.377-1.254-.295-.939-.607-1.873-.928-2.805-.09-.26-.172-.523-.264-.783a106.772 106.772 0 00-1.33-3.564c-.1-.253-.209-.503-.311-.756-.369-.917-.747-1.832-1.142-2.74-.175-.403-.36-.801-.54-1.202-.34-.756-.684-1.509-1.042-2.257-.209-.438-.425-.873-.64-1.308a108.105 108.105 0 00-1.774-3.435c-.38-.703-.77-1.401-1.166-2.097-.238-.418-.473-.836-.716-1.251-.44-.751-.895-1.494-1.355-2.236-.214-.346-.422-.695-.64-1.038a108.775 108.775 0 00-2.113-3.209 112.589 112.589 0 00-2.075-2.914c-.204-.278-.412-.553-.618-.829-.541-.723-1.09-1.437-1.647-2.145-.201-.255-.4-.513-.604-.766-.739-.922-1.49-1.834-2.257-2.729-.1-.116-.203-.229-.303-.345a108.121 108.121 0 00-4.663-5.062c-.209-.213-.414-.428-.625-.639a109.229 109.229 0 00-2.513-2.444c-.175-.165-.355-.325-.531-.489a111.41 111.41 0 00-2.107-1.906c-.27-.238-.542-.474-.814-.71a108.283 108.283 0 00-2.146-1.804c-.197-.161-.39-.326-.588-.486a107.65 107.65 0 00-2.754-2.15c-.232-.175-.468-.345-.701-.518a108.153 108.153 0 00-5.584-3.884c-.148-.096-.293-.196-.441-.291-.852-.547-1.71-1.084-2.578-1.608.224-.213.434-.44.655-.656.62-.6 1.229-1.21 1.829-1.83a75.455 75.455 0 002.919-3.182c.268-.307.537-.612.8-.924a80.581 80.581 0 001.964-2.426c.21-.268.425-.532.631-.803a83.427 83.427 0 001.875-2.577c3.902.573 7.834.863 11.754.863a80.502 80.502 0 0037.572-9.271c30.855 14.618 50.548 45.373 50.548 79.631v25.074h-58.464z"/>
</svg>

<svg xmlns="http://www.w3.org/2000/svg" viewBox="0 0 372.5 372.5">
  <path d="M372.5 263a108.8 108.8 0 0 0-52.5-92.6A81.1 81.1 0 1 0 198 65.3a81.3 81.3 0 0 0-23.5 0 81.1 81.1 0 1 0-122 105.2A108.8 108.8 0 0 0 0 263v45.1h78.1V342h216.3v-34h78v-45zM264.4 50.6a61.1 61.1 0 1 1-1.8 122v-.3a80.2 80.2 0 0 0 2.7-9.1l.1-.7.5-2.5.3-1.2a81.4 81.4 0 0 0 .5-3.9 83.8 83.8 0 0 0 .4-4v-1.7l.2-3.5v-.4a82.6 82.6 0 0 0-.1-3.6v-1a84 84 0 0 0-.3-3.1v-.7a80.6 80.6 0 0 0-48.2-65.8 61.2 61.2 0 0 1 45.7-20.5zM165 88.1l.6-.2a58.8 58.8 0 0 1 4.3-1.3 61 61 0 0 1 16.2-2.2 61.2 61.2 0 0 1 17.3 2.5 61.3 61.3 0 0 1 3.3 1l.6.2a61.2 61.2 0 0 1 39.1 47.8l.1.5.3 2.3v.8c.2.7.2 1.4.2 2l.1 1v6.4l-.2 2.5-.1 1a64 64 0 0 1-.2 1.5l-.2 1.3a60.2 60.2 0 0 1-1 4.5 61.5 61.5 0 0 1-.6 2.4l-.2 1-.5 1.3c0 .4-.2.7-.3 1.1l-.5 1.2-.8 2-.4 1a59.7 59.7 0 0 1-.7 1.7l-.1.2-.3.6a58.2 58.2 0 0 1-1 1.8l-.3.7a61.4 61.4 0 0 1-1.1 1.9l-.4.7a61 61 0 0 1-1.3 2l-.8 1-.7 1a62.1 62.1 0 0 1-1.6 2.1l-1 1.3-.7.8-1 1.2-.7.7a62.4 62.4 0 0 1-1.9 1.9l-1 1-.9.7a60.4 60.4 0 0 1-2 1.8L223 194l-.4.3a60.7 60.7 0 0 1-72.7 0l-.4-.3a59.8 59.8 0 0 1-1.7-1.3l-.7-.6a63.7 63.7 0 0 1-1.3-1.2l-.8-.7-1.2-1a61.6 61.6 0 0 1-1.8-2l-.7-.6-1-1.3-.7-.7a63.8 63.8 0 0 1-1.7-2 63 63 0 0 1-1-1.3l-.6-1-.8-1.2a60.8 60.8 0 0 1-1.3-1.9l-.4-.7a61 61 0 0 1-1-2l-.5-.6a62 62 0 0 1-.9-1.8l-.3-.7a60 60 0 0 1-.9-1.8l-.3-.9a61.8 61.8 0 0 1-.9-2c0-.5-.2-.9-.4-1.2a59.6 59.6 0 0 1-.4-1.2l-.4-1.3a59.2 59.2 0 0 1-.5-2l-.4-1.4a58.1 58.1 0 0 1-.2-1l-.3-1.4a59.7 59.7 0 0 1-.4-2.2l-.2-1.1a60.4 60.4 0 0 1-.2-1.7l-.1-.9a61 61 0 0 1-.2-2.5v-.8a61 61 0 0 1-.1-2.7v-3l.1-.7.2-2.2v-.8l.4-2.3v-.5A61.2 61.2 0 0 1 165.1 88zM47 111.6a61.1 61.1 0 0 1 106.6-40.5 80.6 80.6 0 0 0-48 65.8l-.1.6a81.2 81.2 0 0 0-.2 3.2l-.1 1a82.7 82.7 0 0 0-.1 3.7l.1 3.8.1 1.6a84.5 84.5 0 0 0 .4 4 78.8 78.8 0 0 0 .5 4l.3 1.3.4 2.4.2.8a80 80 0 0 0 2.5 8.8l.2.6H108c-33.6 0-61-27.4-61-61zm47.8 127.5-.7 1.1-1.3 2.2-.7 1.3a106.5 106.5 0 0 0-1.9 3.4 109 109 0 0 0-2.7 5.7L87 254l-1.1 2.7-.3.8a106.1 106.1 0 0 0-1.4 3.5l-.2.9-1 2.7-.3 1.3a106 106 0 0 0-1.1 3.8 98.6 98.6 0 0 0-.6 2.2 107.8 107.8 0 0 0-.8 3.8c0 .5-.2 1-.3 1.4l-.4 2.6-.2 1.2a107.2 107.2 0 0 0-.5 3.7l-.3 3.5H20v-25a88 88 0 0 1 50.5-79.7 80.5 80.5 0 0 0 37.6 9.3c4 0 7.9-.3 11.8-.9a82.7 82.7 0 0 0 1.8 2.6l.7.8a80.7 80.7 0 0 0 2 2.4l.8 1a80.4 80.4 0 0 0 2.9 3.2 84.2 84.2 0 0 0 1.8 1.7l.6.7-2.5 1.6-.4.3-2.6 1.7-.8.6-2.3 1.6-.7.5-2.7 2.2-.6.5a105.2 105.2 0 0 0-3 2.5 110.6 110.6 0 0 0-2 1.9l-.6.5a106.6 106.6 0 0 0-2.5 2.4l-.6.7-2 2-.6.7-2 2.3-.4.4-2.3 2.7-.6.8-1.6 2-.6 1a111.8 111.8 0 0 0-2.1 2.8 107.4 107.4 0 0 0-2.1 3.2zM98 322v-28.5l.1-1.1.2-2.2v-1.3l.3-2c0-.4 0-1 .2-1.4l.2-1.8.2-1.5.3-1.7.3-1.5.4-1.7.4-1.5c0-.5.2-1 .4-1.6 0-.5.2-1 .4-1.5l.4-1.6.5-1.5.5-1.6.6-1.4.5-1.6.6-1.4.6-1.5.7-1.4.6-1.5.7-1.4.8-1.5.7-1.4.8-1.4.8-1.3.8-1.4.8-1.3.9-1.4.9-1.3.9-1.3 1-1.3 1-1.2c.2-.5.6-.9.9-1.3l1-1.2a92 92 0 0 1 1-1.2l1-1.2 1.2-1.2a85.4 85.4 0 0 1 4.5-4.5 94 94 0 0 1 1.2-1.1 86.6 86.6 0 0 1 2.4-2.1 87.2 87.2 0 0 1 1.3-1l1.2-1a102 102 0 0 1 2.6-2 88 88 0 0 1 4-2.7 85 85 0 0 1 2.8-1.7 89.4 89.4 0 0 1 4.4-2.4l1.4-.7 1.2-.5a80.5 80.5 0 0 0 37.5 9.2 80.5 80.5 0 0 0 37.6-9.2l1.1.5a98.5 98.5 0 0 1 3 1.5 89 89 0 0 1 2.8 1.6 84.3 84.3 0 0 1 2.8 1.7 83.6 83.6 0 0 1 2.7 1.8 82.3 82.3 0 0 1 2.7 1.9 82.5 82.5 0 0 1 2.5 2 94.3 94.3 0 0 1 2.5 2 81.5 81.5 0 0 1 2.4 2.2 87.7 87.7 0 0 1 8.7 9.3l1 1.3 1 1.2.9 1.3.9 1.3.9 1.3.8 1.4.9 1.3.8 1.4.8 1.3.8 1.4.7 1.4.7 1.5.7 1.4.7 1.5.6 1.4.7 1.5.6 1.4.5 1.6.5 1.4.6 1.6.4 1.5.5 1.6.4 1.5.4 1.6.4 1.5.3 1.7.3 1.5.3 1.7.3 1.5.2 1.8.2 1.4.2 2 .1 1.3.1 2.2.1 1v28.4h-176zm196-33.8a108.4 108.4 0 0 0-1-7.2l-.1-1.2-.5-2.6-.2-1.4-.5-2.3a112.5 112.5 0 0 0-1.3-5.1l-.7-2.4-.4-1.3-.9-2.8-.2-.8a106.8 106.8 0 0 0-1.4-3.5c0-.3-.2-.5-.3-.8l-1.1-2.7-.6-1.2-1-2.3-.7-1.3a108.1 108.1 0 0 0-1.7-3.4l-1.2-2.1-.7-1.3-1.4-2.2-.6-1a108.8 108.8 0 0 0-2.1-3.3 112.6 112.6 0 0 0-2-2.9l-.7-.8-1.7-2.1-.6-.8-2.2-2.7-.3-.4a108.1 108.1 0 0 0-4.7-5l-.6-.7a109.2 109.2 0 0 0-2.5-2.4l-.6-.5a111.4 111.4 0 0 0-2-2l-.9-.6a108.3 108.3 0 0 0-2.1-1.8l-.6-.5a107.7 107.7 0 0 0-2.8-2.2l-.7-.5a108.2 108.2 0 0 0-5.5-3.9c-.2 0-.3-.2-.5-.3l-2.6-1.6.7-.6 1.8-1.9a75.5 75.5 0 0 0 3-3.1l.7-1a80.6 80.6 0 0 0 2-2.4l.6-.8a83.4 83.4 0 0 0 2-2.6c3.8.6 7.7.9 11.7.9a80.5 80.5 0 0 0 37.5-9.3 88 88 0 0 1 50.6 79.6v25.1H294z"/>
</svg>
