<svg xmlns="http://www.w3.org/2000/svg" viewBox="0 0 478.703 478.703">
  <path d="M454.2 189.101l-33.6-5.7c-3.5-11.3-8-22.2-13.5-32.6l19.8-27.7c8.4-11.8 7.1-27.9-3.2-38.1l-29.8-29.8c-5.6-5.6-13-8.7-20.9-8.7-6.2 0-12.1 1.9-17.1 5.5l-27.8 19.8c-10.8-5.7-22.1-10.4-33.8-13.9l-5.6-33.2a29.54 29.54 0 00-29.2-24.7h-42.1c-14.5 0-26.8 10.4-29.2 24.7l-5.8 34c-11.2 3.5-22.1 8.1-32.5 13.7l-27.5-19.8c-5-3.6-11-5.5-17.2-5.5-7.9 0-15.4 3.1-20.9 8.7l-29.9 29.8c-10.2 10.2-11.6 26.3-3.2 38.1l20 28.1c-5.5 10.5-9.9 21.4-13.3 32.7l-33.2 5.6a29.54 29.54 0 00-24.7 29.2v42.1c0 14.5 10.4 26.8 24.7 29.2l34 5.8c3.5 11.2 8.1 22.1 13.7 32.5l-19.7 27.4c-8.4 11.8-7.1 27.9 3.2 38.1l29.8 29.8c5.6 5.6 13 8.7 20.9 8.7 6.2 0 12.1-1.9 17.1-5.5l28.1-20c10.1 5.3 20.7 9.6 31.6 13l5.6 33.6a29.54 29.54 0 0029.2 24.7h42.2c14.5 0 26.8-10.4 29.2-24.7l5.7-33.6c11.3-3.5 22.2-8 32.6-13.5l27.7 19.8c5 3.6 11 5.5 17.2 5.5 7.9 0 15.3-3.1 20.9-8.7l29.8-29.8c10.2-10.2 11.6-26.3 3.2-38.1l-19.8-27.8c5.5-10.5 10.1-21.4 13.5-32.6l33.6-5.6a29.54 29.54 0 0024.7-29.2v-42.1c.2-14.5-10.2-26.8-24.5-29.2zm-2.3 71.3c0 1.3-.9 2.4-2.2 2.6l-42 7c-5.3.9-9.5 4.8-10.8 9.9-3.8 14.7-9.6 28.8-17.4 41.9-2.7 4.6-2.5 10.3.6 14.7l24.7 34.8c.7 1 .6 2.5-.3 3.4l-29.8 29.8c-.7.7-1.4.8-1.9.8-.6 0-1.1-.2-1.5-.5l-34.7-24.7c-4.3-3.1-10.1-3.3-14.7-.6-13.1 7.8-27.2 13.6-41.9 17.4-5.2 1.3-9.1 5.6-9.9 10.8l-7.1 42c-.2 1.3-1.3 2.2-2.6 2.2h-42.1c-1.3 0-2.4-.9-2.6-2.2l-7-42c-.9-5.3-4.8-9.5-9.9-10.8-14.3-3.7-28.1-9.4-41-16.8-2.1-1.2-4.5-1.8-6.8-1.8-2.7 0-5.5.8-7.8 2.5l-35 24.9c-.5.3-1 .5-1.5.5-.4 0-1.2-.1-1.9-.8l-29.8-29.8c-.9-.9-1-2.3-.3-3.4l24.6-34.5c3.1-4.4 3.3-10.2.6-14.8-7.8-13-13.8-27.1-17.6-41.8-1.4-5.1-5.6-9-10.8-9.9l-42.3-7.2c-1.3-.2-2.2-1.3-2.2-2.6v-42.1c0-1.3.9-2.4 2.2-2.6l41.7-7c5.3-.9 9.6-4.8 10.9-10 3.7-14.7 9.4-28.9 17.1-42 2.7-4.6 2.4-10.3-.7-14.6l-24.9-35c-.7-1-.6-2.5.3-3.4l29.8-29.8c.7-.7 1.4-.8 1.9-.8.6 0 1.1.2 1.5.5l34.5 24.6c4.4 3.1 10.2 3.3 14.8.6 13-7.8 27.1-13.8 41.8-17.6 5.1-1.4 9-5.6 9.9-10.8l7.2-42.3c.2-1.3 1.3-2.2 2.6-2.2h42.1c1.3 0 2.4.9 2.6 2.2l7 41.7c.9 5.3 4.8 9.6 10 10.9 15.1 3.8 29.5 9.7 42.9 17.6 4.6 2.7 10.3 2.5 14.7-.6l34.5-24.8c.5-.3 1-.5 1.5-.5.4 0 1.2.1 1.9.8l29.8 29.8c.9.9 1 2.3.3 3.4l-24.7 34.7c-3.1 4.3-3.3 10.1-.6 14.7 7.8 13.1 13.6 27.2 17.4 41.9 1.3 5.2 5.6 9.1 10.8 9.9l42 7.1c1.3.2 2.2 1.3 2.2 2.6v42.1h-.1z"/><path d="M239.4 136.001c-57 0-103.3 46.3-103.3 103.3s46.3 103.3 103.3 103.3 103.3-46.3 103.3-103.3-46.3-103.3-103.3-103.3zm0 179.6c-42.1 0-76.3-34.2-76.3-76.3s34.2-76.3 76.3-76.3 76.3 34.2 76.3 76.3-34.2 76.3-76.3 76.3z"/>
</svg>

<svg xmlns="http://www.w3.org/2000/svg" viewBox="0 0 479 479">
  <path d="m454 189-33-6c-4-11-8-22-14-32l20-28c8-12 7-28-3-38l-30-30a29 29 0 0 0-38-3l-28 20c-11-6-22-11-34-14l-5-33a30 30 0 0 0-30-25h-42c-14 0-26 10-29 25l-6 34c-11 3-22 8-32 13l-28-19a29 29 0 0 0-38 3L54 86a30 30 0 0 0-3 38l20 28c-5 10-10 21-13 33l-33 5a30 30 0 0 0-25 29v42c0 15 10 27 25 30l34 5c3 12 8 23 13 33l-19 27c-9 12-7 28 3 38l30 30a29 29 0 0 0 38 3l28-20c10 6 20 10 31 13l6 34a30 30 0 0 0 29 25h42c15 0 27-11 30-25l5-34c12-3 22-8 33-13l28 20a29 29 0 0 0 38-3l29-30c11-10 12-27 4-38l-20-28c5-11 10-22 13-33l34-5a30 30 0 0 0 25-30v-42c0-14-11-26-25-29zm-2 71c0 2-1 3-2 3l-42 7c-6 1-10 5-11 10-4 15-10 29-18 42-2 4-2 10 1 15l25 34v4l-30 30h-4l-34-25c-5-3-10-3-15 0-13 7-27 13-42 17-5 1-9 6-10 11l-7 42c0 1-1 2-3 2h-42l-2-2-7-42c-1-6-5-10-10-11-14-4-28-9-41-17l-7-2c-3 0-5 1-8 3l-35 25h-1l-2-1-30-29v-4l24-34c3-5 4-10 1-15-8-13-14-27-18-42-1-5-5-9-10-10l-43-7c-1 0-2-1-2-3v-42l2-2 42-7c5-1 10-5 11-10 4-15 9-29 17-42 3-5 2-11-1-15l-25-35 1-3 29-30 2-1 2 1 34 24c5 3 11 4 15 1 13-8 27-14 42-18 5-1 9-5 10-11l7-42c0-1 1-2 3-2h42l2 2 7 42c1 5 5 9 10 11 15 4 30 9 43 17 5 3 11 3 15 0l34-25 2-1 2 1 30 30v3l-25 35c-3 4-3 10 0 15 7 13 13 27 17 42 1 5 6 9 11 10l42 7 2 2v42z"/>
  <path d="M239 136a103 103 0 1 0 1 207 103 103 0 0 0-1-207zm0 180a76 76 0 1 1 1-153 76 76 0 0 1-1 153z"/>
</svg>
