<svg viewBox="0 0 24 24" xmlns="http://www.w3.org/2000/svg">
  <path d="M23.954 4.569a10 10 0 01-2.825.775 4.958 4.958 0 002.163-2.723c-.951.555-2.005.959-3.127 1.184a4.92 4.92 0 00-8.384 4.482C7.691 8.094 4.066 6.13 1.64 3.161a4.822 4.822 0 00-.666 2.475c0 1.71.87 3.213 2.188 4.096a4.904 4.904 0 01-2.228-.616v.061a4.923 4.923 0 003.946 4.827 4.996 4.996 0 01-2.212.085 4.937 4.937 0 004.604 3.417 9.868 9.868 0 01-6.102 2.105c-.39 0-.779-.023-1.17-.067a13.995 13.995 0 007.557 2.209c9.054 0 13.999-7.496 13.999-13.986 0-.209 0-.42-.015-.63a9.936 9.936 0 002.46-2.548l-.047-.02z"/>
</svg>


<svg xmlns="http://www.w3.org/2000/svg" viewBox="0 0 24 24">
  <path d="M23.95 4.57a10 10 0 0 1-2.82.77 4.96 4.96 0 0 0 2.16-2.72c-.95.56-2 .96-3.12 1.19a4.92 4.92 0 0 0-8.39 4.48A13.93 13.93 0 0 1 1.64 3.16a4.82 4.82 0 0 0-.67 2.48c0 1.7.87 3.2 2.2 4.1a4.9 4.9 0 0 1-2.24-.62v.06A4.92 4.92 0 0 0 4.88 14a5 5 0 0 1-2.21.09 4.94 4.94 0 0 0 4.6 3.42 9.87 9.87 0 0 1-6.1 2.1c-.39 0-.78-.02-1.17-.07a14 14 0 0 0 7.56 2.21c9.05 0 14-7.5 14-13.98 0-.21 0-.42-.02-.63A9.94 9.94 0 0 0 24 4.59l-.05-.02z"/>
</svg>
